
<?xml version="1.0" standalone="no"?>
<!DOCTYPE svg PUBLIC "-//W3C//DTD SVG 20010904//EN"
 "http://www.w3.org/TR/2001/REC-SVG-20010904/DTD/svg10.dtd">
<svg version="1.0" xmlns="http://www.w3.org/2000/svg"
 width="433.000000pt" height="577.000000pt" viewBox="0 0 433.000000 577.000000"
 preserveAspectRatio="xMidYMid meet">

<g transform="translate(0.000000,577.000000) scale(0.100000,-0.100000)"
fill="#FFFFFF" stroke="none">
<path d="M980 3540 c340 -9 1420 -9 1590 -1 74 4 -310 7 -855 7 -586 0 -886
-3 -735 -6z"/>
<path d="M1888 1923 c7 -3 16 -2 19 1 4 3 -2 6 -13 5 -11 0 -14 -3 -6 -6z"/>
<path d="M2143 1887 c44 -6 90 -6 135 0 63 10 59 10 -68 10 -127 0 -131 0 -67
-10z"/>
</g>
</svg>