<!DOCTYPE svg PUBLIC "-//W3C//DTD SVG 20010904//EN"
 "http://www.w3.org/TR/2001/REC-SVG-20010904/DTD/svg10.dtd">
<svg version="1.0" xmlns="http://www.w3.org/2000/svg"
 width="1024.000000pt" height="1024.000000pt" viewBox="0 0 1024.000000 1024.000000"
 preserveAspectRatio="xMidYMid meet">

<g transform="translate(0.000000,1024.000000) scale(0.100000,-0.100000)"
fill="#000000" stroke="none">
<path d="M4839 10230 c-1619 -92 -3088 -934 -3986 -2285 -423 -637 -697 -1362
-802 -2125 -63 -456 -61 -992 5 -1440 211 -1439 1025 -2720 2239 -3527 637
-423 1362 -697 2125 -802 456 -63 992 -61 1440 5 1439 211 2720 1025 3527
2239 423 637 697 1362 802 2125 63 456 61 992 -5 1440 -211 1439 -1025 2720
-2239 3527 -712 473 -1545 762 -2400 833 -177 14 -539 20 -706 10z m-1114
-2304 c28 -7 66 -21 85 -31 119 -61 1451 -821 1480 -844 52 -41 107 -128 125
-196 12 -46 15 -123 15 -356 l0 -297 -319 -181 c-175 -100 -324 -181 -330
-181 -7 0 -11 101 -13 318 l-3 317 -32 68 c-55 116 -85 138 -534 387 -222 123
-426 232 -454 242 -76 26 -215 24 -285 -5 -113 -47 -854 -468 -898 -510 -24
-23 -58 -69 -75 -102 l-32 -60 0 -530 0 -530 29 -60 c55 -112 93 -139 541
-391 226 -127 432 -238 459 -247 27 -9 76 -20 110 -23 118 -12 142 -1 741 340
303 172 672 380 820 461 149 82 491 274 760 429 270 154 519 290 555 303 81
28 192 30 265 5 85 -29 1540 -849 1595 -899 31 -28 62 -69 82 -111 l33 -67 0
-890 0 -890 -32 -66 c-62 -126 -71 -132 -883 -584 -760 -423 -801 -443 -912
-444 -104 -2 -133 12 -903 440 -812 451 -835 466 -890 576 l-30 58 0 334 0
334 314 178 c173 99 317 179 322 179 4 0 9 -141 11 -313 l3 -313 38 -76 c59
-119 93 -144 532 -388 213 -118 415 -225 449 -237 68 -25 192 -31 261 -12 67
18 883 488 933 537 24 24 58 73 75 110 l32 67 0 510 c0 399 -3 518 -13 548
-22 61 -90 154 -140 190 -71 52 -815 463 -875 484 -73 25 -206 23 -272 -3 -52
-21 -533 -288 -1265 -702 -572 -324 -1314 -738 -1380 -772 -104 -52 -254 -64
-344 -26 -20 8 -369 200 -776 427 -498 277 -757 426 -790 456 -31 28 -61 69
-82 111 l-33 67 -3 870 c-2 849 -2 871 18 935 23 76 73 148 131 190 22 16 370
212 772 437 761 424 797 441 912 442 28 1 73 -5 100 -13z"/>
</g>
</svg>